# Tiled2Unity generated file. Do not modify by hand.
# Wavefront file for 'house1map_mesh_0002.obj'

# Vertices (Count = 24)
v -9 -3 0
v -10 -3 0
v -10 -2 0
v -9 -2 0
v -9 -4 0
v -10 -4 0
v -10 -3 0
v -9 -3 0
v -1 -4 0
v -2 -4 0
v -2 -3 0
v -1 -3 0
v -2 -7 0
v -3 -7 0
v -3 -6 0
v -2 -6 0
v -2 -8 0
v -3 -8 0
v -3 -7 0
v -2 -7 0
v -1 -8 0
v -2 -8 0
v -2 -7 0
v -1 -7 0

# Texture cooridinates (Count = 24)
vt 0.7200413 0.5817491
vt 0.7365702 0.5817491
vt 0.7365702 0.6121673
vt 0.7200413 0.6121673
vt 0.7727273 0.5817491
vt 0.7892562 0.5817491
vt 0.7892562 0.6121673
vt 0.7727273 0.6121673
vt 0.2458678 0.904943
vt 0.2623967 0.904943
vt 0.2623967 0.9353612
vt 0.2458678 0.9353612
vt 0.3336777 0.904943
vt 0.3502066 0.904943
vt 0.3502066 0.9353612
vt 0.3336777 0.9353612
vt 0.3863636 0.7756654
vt 0.4028926 0.7756654
vt 0.4028926 0.8060837
vt 0.3863636 0.8060837
vt 0.3688017 0.904943
vt 0.3853306 0.904943
vt 0.3853306 0.9353612
vt 0.3688017 0.9353612

# Normal
vn 0 0 -1

# Mesh description
g house1map_mesh_0002

# Faces
f 1/1/1 2/2/1 3/3/1 4/4/1
f 5/5/1 6/6/1 7/7/1 8/8/1
f 9/9/1 10/10/1 11/11/1 12/12/1
f 13/13/1 14/14/1 15/15/1 16/16/1
f 17/17/1 18/18/1 19/19/1 20/20/1
f 21/21/1 22/22/1 23/23/1 24/24/1

