# Tiled2Unity generated file. Do not modify by hand.
# Wavefront file for 'worldmap_mesh_0002.obj'

# Vertices (Count = 600)
v -38 -4 0
v -39 -4 0
v -39 -3 0
v -38 -3 0
v -37 -4 0
v -38 -4 0
v -38 -3 0
v -37 -3 0
v -36 -4 0
v -37 -4 0
v -37 -3 0
v -36 -3 0
v -35 -4 0
v -36 -4 0
v -36 -3 0
v -35 -3 0
v -38 -5 0
v -39 -5 0
v -39 -4 0
v -38 -4 0
v -37 -5 0
v -38 -5 0
v -38 -4 0
v -37 -4 0
v -36 -5 0
v -37 -5 0
v -37 -4 0
v -36 -4 0
v -35 -5 0
v -36 -5 0
v -36 -4 0
v -35 -4 0
v -39 -6 0
v -40 -6 0
v -40 -5 0
v -39 -5 0
v -38 -6 0
v -39 -6 0
v -39 -5 0
v -38 -5 0
v -37 -6 0
v -38 -6 0
v -38 -5 0
v -37 -5 0
v -36 -6 0
v -37 -6 0
v -37 -5 0
v -36 -5 0
v -35 -6 0
v -36 -6 0
v -36 -5 0
v -35 -5 0
v -34 -6 0
v -35 -6 0
v -35 -5 0
v -34 -5 0
v -33 -6 0
v -34 -6 0
v -34 -5 0
v -33 -5 0
v -39 -7 0
v -40 -7 0
v -40 -6 0
v -39 -6 0
v -38 -7 0
v -39 -7 0
v -39 -6 0
v -38 -6 0
v -37 -7 0
v -38 -7 0
v -38 -6 0
v -37 -6 0
v -36 -7 0
v -37 -7 0
v -37 -6 0
v -36 -6 0
v -35 -7 0
v -36 -7 0
v -36 -6 0
v -35 -6 0
v -34 -7 0
v -35 -7 0
v -35 -6 0
v -34 -6 0
v -33 -7 0
v -34 -7 0
v -34 -6 0
v -33 -6 0
v -32 -7 0
v -33 -7 0
v -33 -6 0
v -32 -6 0
v -31 -7 0
v -32 -7 0
v -32 -6 0
v -31 -6 0
v -39 -8 0
v -40 -8 0
v -40 -7 0
v -39 -7 0
v -38 -8 0
v -39 -8 0
v -39 -7 0
v -38 -7 0
v -37 -8 0
v -38 -8 0
v -38 -7 0
v -37 -7 0
v -36 -8 0
v -37 -8 0
v -37 -7 0
v -36 -7 0
v -35 -8 0
v -36 -8 0
v -36 -7 0
v -35 -7 0
v -34 -8 0
v -35 -8 0
v -35 -7 0
v -34 -7 0
v -33 -8 0
v -34 -8 0
v -34 -7 0
v -33 -7 0
v -32 -8 0
v -33 -8 0
v -33 -7 0
v -32 -7 0
v -31 -8 0
v -32 -8 0
v -32 -7 0
v -31 -7 0
v -35 -9 0
v -36 -9 0
v -36 -8 0
v -35 -8 0
v -34 -9 0
v -35 -9 0
v -35 -8 0
v -34 -8 0
v -33 -9 0
v -34 -9 0
v -34 -8 0
v -33 -8 0
v -32 -9 0
v -33 -9 0
v -33 -8 0
v -32 -8 0
v -31 -9 0
v -32 -9 0
v -32 -8 0
v -31 -8 0
v -33 -10 0
v -34 -10 0
v -34 -9 0
v -33 -9 0
v -32 -10 0
v -33 -10 0
v -33 -9 0
v -32 -9 0
v -31 -10 0
v -32 -10 0
v -32 -9 0
v -31 -9 0
v -30 -10 0
v -31 -10 0
v -31 -9 0
v -30 -9 0
v -33 -11 0
v -34 -11 0
v -34 -10 0
v -33 -10 0
v -32 -11 0
v -33 -11 0
v -33 -10 0
v -32 -10 0
v -31 -11 0
v -32 -11 0
v -32 -10 0
v -31 -10 0
v -30 -11 0
v -31 -11 0
v -31 -10 0
v -30 -10 0
v -34 -12 0
v -35 -12 0
v -35 -11 0
v -34 -11 0
v -33 -12 0
v -34 -12 0
v -34 -11 0
v -33 -11 0
v -32 -12 0
v -33 -12 0
v -33 -11 0
v -32 -11 0
v -31 -12 0
v -32 -12 0
v -32 -11 0
v -31 -11 0
v -30 -12 0
v -31 -12 0
v -31 -11 0
v -30 -11 0
v -29 -12 0
v -30 -12 0
v -30 -11 0
v -29 -11 0
v -28 -12 0
v -29 -12 0
v -29 -11 0
v -28 -11 0
v -27 -12 0
v -28 -12 0
v -28 -11 0
v -27 -11 0
v -26 -12 0
v -27 -12 0
v -27 -11 0
v -26 -11 0
v -25 -12 0
v -26 -12 0
v -26 -11 0
v -25 -11 0
v -34 -13 0
v -35 -13 0
v -35 -12 0
v -34 -12 0
v -33 -13 0
v -34 -13 0
v -34 -12 0
v -33 -12 0
v -32 -13 0
v -33 -13 0
v -33 -12 0
v -32 -12 0
v -31 -13 0
v -32 -13 0
v -32 -12 0
v -31 -12 0
v -30 -13 0
v -31 -13 0
v -31 -12 0
v -30 -12 0
v -29 -13 0
v -30 -13 0
v -30 -12 0
v -29 -12 0
v -28 -13 0
v -29 -13 0
v -29 -12 0
v -28 -12 0
v -27 -13 0
v -28 -13 0
v -28 -12 0
v -27 -12 0
v -26 -13 0
v -27 -13 0
v -27 -12 0
v -26 -12 0
v -25 -13 0
v -26 -13 0
v -26 -12 0
v -25 -12 0
v -24 -13 0
v -25 -13 0
v -25 -12 0
v -24 -12 0
v -23 -13 0
v -24 -13 0
v -24 -12 0
v -23 -12 0
v -34 -14 0
v -35 -14 0
v -35 -13 0
v -34 -13 0
v -33 -14 0
v -34 -14 0
v -34 -13 0
v -33 -13 0
v -32 -14 0
v -33 -14 0
v -33 -13 0
v -32 -13 0
v -31 -14 0
v -32 -14 0
v -32 -13 0
v -31 -13 0
v -30 -14 0
v -31 -14 0
v -31 -13 0
v -30 -13 0
v -29 -14 0
v -30 -14 0
v -30 -13 0
v -29 -13 0
v -28 -14 0
v -29 -14 0
v -29 -13 0
v -28 -13 0
v -27 -14 0
v -28 -14 0
v -28 -13 0
v -27 -13 0
v -26 -14 0
v -27 -14 0
v -27 -13 0
v -26 -13 0
v -25 -14 0
v -26 -14 0
v -26 -13 0
v -25 -13 0
v -24 -14 0
v -25 -14 0
v -25 -13 0
v -24 -13 0
v -23 -14 0
v -24 -14 0
v -24 -13 0
v -23 -13 0
v -28 -15 0
v -29 -15 0
v -29 -14 0
v -28 -14 0
v -27 -15 0
v -28 -15 0
v -28 -14 0
v -27 -14 0
v -26 -15 0
v -27 -15 0
v -27 -14 0
v -26 -14 0
v -25 -15 0
v -26 -15 0
v -26 -14 0
v -25 -14 0
v -24 -15 0
v -25 -15 0
v -25 -14 0
v -24 -14 0
v -23 -15 0
v -24 -15 0
v -24 -14 0
v -23 -14 0
v -28 -16 0
v -29 -16 0
v -29 -15 0
v -28 -15 0
v -27 -16 0
v -28 -16 0
v -28 -15 0
v -27 -15 0
v -26 -16 0
v -27 -16 0
v -27 -15 0
v -26 -15 0
v -25 -16 0
v -26 -16 0
v -26 -15 0
v -25 -15 0
v -28 -17 0
v -29 -17 0
v -29 -16 0
v -28 -16 0
v -27 -17 0
v -28 -17 0
v -28 -16 0
v -27 -16 0
v -26 -17 0
v -27 -17 0
v -27 -16 0
v -26 -16 0
v -28 -18 0
v -29 -18 0
v -29 -17 0
v -28 -17 0
v -27 -18 0
v -28 -18 0
v -28 -17 0
v -27 -17 0
v -26 -18 0
v -27 -18 0
v -27 -17 0
v -26 -17 0
v -28 -19 0
v -29 -19 0
v -29 -18 0
v -28 -18 0
v -27 -19 0
v -28 -19 0
v -28 -18 0
v -27 -18 0
v -26 -19 0
v -27 -19 0
v -27 -18 0
v -26 -18 0
v -25 -19 0
v -26 -19 0
v -26 -18 0
v -25 -18 0
v -24 -19 0
v -25 -19 0
v -25 -18 0
v -24 -18 0
v -23 -19 0
v -24 -19 0
v -24 -18 0
v -23 -18 0
v -22 -19 0
v -23 -19 0
v -23 -18 0
v -22 -18 0
v -21 -19 0
v -22 -19 0
v -22 -18 0
v -21 -18 0
v -28 -20 0
v -29 -20 0
v -29 -19 0
v -28 -19 0
v -27 -20 0
v -28 -20 0
v -28 -19 0
v -27 -19 0
v -26 -20 0
v -27 -20 0
v -27 -19 0
v -26 -19 0
v -25 -20 0
v -26 -20 0
v -26 -19 0
v -25 -19 0
v -24 -20 0
v -25 -20 0
v -25 -19 0
v -24 -19 0
v -23 -20 0
v -24 -20 0
v -24 -19 0
v -23 -19 0
v -22 -20 0
v -23 -20 0
v -23 -19 0
v -22 -19 0
v -21 -20 0
v -22 -20 0
v -22 -19 0
v -21 -19 0
v -29 -21 0
v -30 -21 0
v -30 -20 0
v -29 -20 0
v -28 -21 0
v -29 -21 0
v -29 -20 0
v -28 -20 0
v -27 -21 0
v -28 -21 0
v -28 -20 0
v -27 -20 0
v -26 -21 0
v -27 -21 0
v -27 -20 0
v -26 -20 0
v -25 -21 0
v -26 -21 0
v -26 -20 0
v -25 -20 0
v -24 -21 0
v -25 -21 0
v -25 -20 0
v -24 -20 0
v -23 -21 0
v -24 -21 0
v -24 -20 0
v -23 -20 0
v -22 -21 0
v -23 -21 0
v -23 -20 0
v -22 -20 0
v -21 -21 0
v -22 -21 0
v -22 -20 0
v -21 -20 0
v -28 -22 0
v -29 -22 0
v -29 -21 0
v -28 -21 0
v -27 -22 0
v -28 -22 0
v -28 -21 0
v -27 -21 0
v -26 -22 0
v -27 -22 0
v -27 -21 0
v -26 -21 0
v -25 -22 0
v -26 -22 0
v -26 -21 0
v -25 -21 0
v -24 -22 0
v -25 -22 0
v -25 -21 0
v -24 -21 0
v -23 -22 0
v -24 -22 0
v -24 -21 0
v -23 -21 0
v -22 -22 0
v -23 -22 0
v -23 -21 0
v -22 -21 0
v -21 -22 0
v -22 -22 0
v -22 -21 0
v -21 -21 0
v -28 -23 0
v -29 -23 0
v -29 -22 0
v -28 -22 0
v -27 -23 0
v -28 -23 0
v -28 -22 0
v -27 -22 0
v -26 -23 0
v -27 -23 0
v -27 -22 0
v -26 -22 0
v -25 -23 0
v -26 -23 0
v -26 -22 0
v -25 -22 0
v -24 -23 0
v -25 -23 0
v -25 -22 0
v -24 -22 0
v -23 -23 0
v -24 -23 0
v -24 -22 0
v -23 -22 0
v -22 -23 0
v -23 -23 0
v -23 -22 0
v -22 -22 0
v -21 -23 0
v -22 -23 0
v -22 -22 0
v -21 -22 0
v -28 -24 0
v -29 -24 0
v -29 -23 0
v -28 -23 0
v -27 -24 0
v -28 -24 0
v -28 -23 0
v -27 -23 0
v -26 -24 0
v -27 -24 0
v -27 -23 0
v -26 -23 0
v -25 -24 0
v -26 -24 0
v -26 -23 0
v -25 -23 0
v -24 -24 0
v -25 -24 0
v -25 -23 0
v -24 -23 0
v -23 -24 0
v -24 -24 0
v -24 -23 0
v -23 -23 0
v -22 -24 0
v -23 -24 0
v -23 -23 0
v -22 -23 0
v -27 -25 0
v -28 -25 0
v -28 -24 0
v -27 -24 0
v -26 -25 0
v -27 -25 0
v -27 -24 0
v -26 -24 0
v -25 -25 0
v -26 -25 0
v -26 -24 0
v -25 -24 0
v -24 -25 0
v -25 -25 0
v -25 -24 0
v -24 -24 0
v -23 -25 0
v -24 -25 0
v -24 -24 0
v -23 -24 0
v -22 -25 0
v -23 -25 0
v -23 -24 0
v -22 -24 0

# Texture cooridinates (Count = 56)
vt 0.1580579 0.6787072
vt 0.1745868 0.6787072
vt 0.1745868 0.7091255
vt 0.1580579 0.7091255
vt 0.1404959 0.6787072
vt 0.1570248 0.6787072
vt 0.1570248 0.7091255
vt 0.1404959 0.7091255
vt 0.1229339 0.6787072
vt 0.1394628 0.6787072
vt 0.1394628 0.7091255
vt 0.1229339 0.7091255
vt 0.1580579 0.6463878
vt 0.1745868 0.6463878
vt 0.1745868 0.6768061
vt 0.1580579 0.6768061
vt 0.1404959 0.6463878
vt 0.1570248 0.6463878
vt 0.1570248 0.6768061
vt 0.1404959 0.6768061
vt 0.1229339 0.6463878
vt 0.1394628 0.6463878
vt 0.1394628 0.6768061
vt 0.1229339 0.6768061
vt 0.08780992 0.6463878
vt 0.1043388 0.6463878
vt 0.1043388 0.6768061
vt 0.08780992 0.6768061
vt 0.1053719 0.6787072
vt 0.1219008 0.6787072
vt 0.1219008 0.7091255
vt 0.1053719 0.7091255
vt 0.08780992 0.6787072
vt 0.1043388 0.6787072
vt 0.1043388 0.7091255
vt 0.08780992 0.7091255
vt 0.1053719 0.6463878
vt 0.1219008 0.6463878
vt 0.1219008 0.6768061
vt 0.1053719 0.6768061
vt 0.1580579 0.6140684
vt 0.1745868 0.6140684
vt 0.1745868 0.6444867
vt 0.1580579 0.6444867
vt 0.1404959 0.6140684
vt 0.1570248 0.6140684
vt 0.1570248 0.6444867
vt 0.1404959 0.6444867
vt 0.1229339 0.6140684
vt 0.1394628 0.6140684
vt 0.1394628 0.6444867
vt 0.1229339 0.6444867
vt 0.08780992 0.4201521
vt 0.1043388 0.4201521
vt 0.1043388 0.4505703
vt 0.08780992 0.4505703

# Normal
vn 0 0 -1

# Mesh description
g worldmap_mesh_0002

# Faces
f 1/1/1 2/2/1 3/3/1 4/4/1
f 5/5/1 6/6/1 7/7/1 8/8/1
f 9/5/1 10/6/1 11/7/1 12/8/1
f 13/9/1 14/10/1 15/11/1 16/12/1
f 17/13/1 18/14/1 19/15/1 20/16/1
f 21/17/1 22/18/1 23/19/1 24/20/1
f 25/17/1 26/18/1 27/19/1 28/20/1
f 29/21/1 30/22/1 31/23/1 32/24/1
f 33/1/1 34/2/1 35/3/1 36/4/1
f 37/25/1 38/26/1 39/27/1 40/28/1
f 41/29/1 42/30/1 43/31/1 44/32/1
f 45/33/1 46/34/1 47/35/1 48/36/1
f 49/37/1 50/38/1 51/39/1 52/40/1
f 53/5/1 54/6/1 55/7/1 56/8/1
f 57/9/1 58/10/1 59/11/1 60/12/1
f 61/13/1 62/14/1 63/15/1 64/16/1
f 65/17/1 66/18/1 67/19/1 68/20/1
f 69/21/1 70/22/1 71/23/1 72/24/1
f 73/13/1 74/14/1 75/15/1 76/16/1
f 77/17/1 78/18/1 79/19/1 80/20/1
f 81/17/1 82/18/1 83/19/1 84/20/1
f 85/37/1 86/38/1 87/39/1 88/40/1
f 89/5/1 90/6/1 91/7/1 92/8/1
f 93/9/1 94/10/1 95/11/1 96/12/1
f 97/41/1 98/42/1 99/43/1 100/44/1
f 101/45/1 102/46/1 103/47/1 104/48/1
f 105/49/1 106/50/1 107/51/1 108/52/1
f 109/41/1 110/42/1 111/43/1 112/44/1
f 113/33/1 114/34/1 115/35/1 116/36/1
f 117/17/1 118/18/1 119/19/1 120/20/1
f 121/17/1 122/18/1 123/19/1 124/20/1
f 125/17/1 126/18/1 127/19/1 128/20/1
f 129/21/1 130/22/1 131/23/1 132/24/1
f 133/41/1 134/42/1 135/43/1 136/44/1
f 137/45/1 138/46/1 139/47/1 140/48/1
f 141/33/1 142/34/1 143/35/1 144/36/1
f 145/17/1 146/18/1 147/19/1 148/20/1
f 149/21/1 150/22/1 151/23/1 152/24/1
f 153/13/1 154/14/1 155/15/1 156/16/1
f 157/17/1 158/18/1 159/19/1 160/20/1
f 161/37/1 162/38/1 163/39/1 164/40/1
f 165/9/1 166/10/1 167/11/1 168/12/1
f 169/13/1 170/14/1 171/15/1 172/16/1
f 173/17/1 174/18/1 175/19/1 176/20/1
f 177/17/1 178/18/1 179/19/1 180/20/1
f 181/21/1 182/22/1 183/23/1 184/24/1
f 185/1/1 186/2/1 187/3/1 188/4/1
f 189/25/1 190/26/1 191/27/1 192/28/1
f 193/17/1 194/18/1 195/19/1 196/20/1
f 197/17/1 198/18/1 199/19/1 200/20/1
f 201/37/1 202/38/1 203/39/1 204/40/1
f 205/5/1 206/6/1 207/7/1 208/8/1
f 209/5/1 210/6/1 211/7/1 212/8/1
f 213/5/1 214/6/1 215/7/1 216/8/1
f 217/5/1 218/6/1 219/7/1 220/8/1
f 221/9/1 222/10/1 223/11/1 224/12/1
f 225/13/1 226/14/1 227/15/1 228/16/1
f 229/17/1 230/18/1 231/19/1 232/20/1
f 233/17/1 234/18/1 235/19/1 236/20/1
f 237/17/1 238/18/1 239/19/1 240/20/1
f 241/17/1 242/18/1 243/19/1 244/20/1
f 245/17/1 246/18/1 247/19/1 248/20/1
f 249/17/1 250/18/1 251/19/1 252/20/1
f 253/17/1 254/18/1 255/19/1 256/20/1
f 257/17/1 258/18/1 259/19/1 260/20/1
f 261/37/1 262/38/1 263/39/1 264/40/1
f 265/5/1 266/6/1 267/7/1 268/8/1
f 269/9/1 270/10/1 271/11/1 272/12/1
f 273/41/1 274/42/1 275/43/1 276/44/1
f 277/45/1 278/46/1 279/47/1 280/48/1
f 281/45/1 282/46/1 283/47/1 284/48/1
f 285/45/1 286/46/1 287/47/1 288/48/1
f 289/45/1 290/46/1 291/47/1 292/48/1
f 293/45/1 294/46/1 295/47/1 296/48/1
f 297/33/1 298/34/1 299/35/1 300/36/1
f 301/17/1 302/18/1 303/19/1 304/20/1
f 305/17/1 306/18/1 307/19/1 308/20/1
f 309/17/1 310/18/1 311/19/1 312/20/1
f 313/17/1 314/18/1 315/19/1 316/20/1
f 317/21/1 318/22/1 319/23/1 320/24/1
f 321/13/1 322/14/1 323/15/1 324/16/1
f 325/17/1 326/18/1 327/19/1 328/20/1
f 329/17/1 330/18/1 331/19/1 332/20/1
f 333/29/1 334/30/1 335/31/1 336/32/1
f 337/45/1 338/46/1 339/47/1 340/48/1
f 341/49/1 342/50/1 343/51/1 344/52/1
f 345/13/1 346/14/1 347/15/1 348/16/1
f 349/17/1 350/18/1 351/19/1 352/20/1
f 353/29/1 354/30/1 355/31/1 356/32/1
f 357/49/1 358/50/1 359/51/1 360/52/1
f 361/13/1 362/14/1 363/15/1 364/16/1
f 365/17/1 366/18/1 367/19/1 368/20/1
f 369/21/1 370/22/1 371/23/1 372/24/1
f 373/13/1 374/14/1 375/15/1 376/16/1
f 377/17/1 378/18/1 379/19/1 380/20/1
f 381/21/1 382/22/1 383/23/1 384/24/1
f 385/13/1 386/14/1 387/15/1 388/16/1
f 389/17/1 390/18/1 391/19/1 392/20/1
f 393/37/1 394/38/1 395/39/1 396/40/1
f 397/5/1 398/6/1 399/7/1 400/8/1
f 401/5/1 402/6/1 403/7/1 404/8/1
f 405/5/1 406/6/1 407/7/1 408/8/1
f 409/5/1 410/6/1 411/7/1 412/8/1
f 413/9/1 414/10/1 415/11/1 416/12/1
f 417/13/1 418/14/1 419/15/1 420/16/1
f 421/17/1 422/18/1 423/19/1 424/20/1
f 425/17/1 426/18/1 427/19/1 428/20/1
f 429/17/1 430/18/1 431/19/1 432/20/1
f 433/17/1 434/18/1 435/19/1 436/20/1
f 437/17/1 438/18/1 439/19/1 440/20/1
f 441/17/1 442/18/1 443/19/1 444/20/1
f 445/21/1 446/22/1 447/23/1 448/24/1
f 449/53/1 450/54/1 451/55/1 452/56/1
f 453/13/1 454/14/1 455/15/1 456/16/1
f 457/17/1 458/18/1 459/19/1 460/20/1
f 461/17/1 462/18/1 463/19/1 464/20/1
f 465/17/1 466/18/1 467/19/1 468/20/1
f 469/17/1 470/18/1 471/19/1 472/20/1
f 473/17/1 474/18/1 475/19/1 476/20/1
f 477/17/1 478/18/1 479/19/1 480/20/1
f 481/21/1 482/22/1 483/23/1 484/24/1
f 485/13/1 486/14/1 487/15/1 488/16/1
f 489/17/1 490/18/1 491/19/1 492/20/1
f 493/17/1 494/18/1 495/19/1 496/20/1
f 497/29/1 498/30/1 499/31/1 500/32/1
f 501/33/1 502/34/1 503/35/1 504/36/1
f 505/17/1 506/18/1 507/19/1 508/20/1
f 509/17/1 510/18/1 511/19/1 512/20/1
f 513/21/1 514/22/1 515/23/1 516/24/1
f 517/13/1 518/14/1 519/15/1 520/16/1
f 521/17/1 522/18/1 523/19/1 524/20/1
f 525/17/1 526/18/1 527/19/1 528/20/1
f 529/37/1 530/38/1 531/39/1 532/40/1
f 533/25/1 534/26/1 535/27/1 536/28/1
f 537/17/1 538/18/1 539/19/1 540/20/1
f 541/29/1 542/30/1 543/31/1 544/32/1
f 545/49/1 546/50/1 547/51/1 548/52/1
f 549/41/1 550/42/1 551/43/1 552/44/1
f 553/33/1 554/34/1 555/35/1 556/36/1
f 557/17/1 558/18/1 559/19/1 560/20/1
f 561/17/1 562/18/1 563/19/1 564/20/1
f 565/17/1 566/18/1 567/19/1 568/20/1
f 569/17/1 570/18/1 571/19/1 572/20/1
f 573/21/1 574/22/1 575/23/1 576/24/1
f 577/41/1 578/42/1 579/43/1 580/44/1
f 581/45/1 582/46/1 583/47/1 584/48/1
f 585/45/1 586/46/1 587/47/1 588/48/1
f 589/45/1 590/46/1 591/47/1 592/48/1
f 593/45/1 594/46/1 595/47/1 596/48/1
f 597/49/1 598/50/1 599/51/1 600/52/1

